<svg width="495" height="500" viewBox="0 0 495 500" fill="none" xmlns="http://www.w3.org/2000/svg">
<rect width="495" height="500" fill="#1A263E"/>
<path d="M248 409C336.366 409 408 337.366 408 249C408 160.634 336.366 89 248 89C159.634 89 88 160.634 88 249C88 337.366 159.634 409 248 409Z" fill="#00D1CA"/>
<path d="M192.348 249C192.348 218.532 217.524 193.348 249.184 193.348C267.284 193.348 283.33 201.605 293.732 214.435C299.953 222.11 311.218 223.288 318.893 217.066C326.567 210.845 327.745 199.58 321.523 191.905C304.542 170.959 278.405 157.571 249.184 157.571C198.306 157.571 156.572 198.237 156.572 249C156.572 299.763 198.306 340.429 249.184 340.429C278.405 340.429 304.542 327.041 321.523 306.094C327.745 298.42 326.567 287.155 318.893 280.934C311.218 274.712 299.953 275.89 293.732 283.564C283.33 296.395 267.284 304.652 249.184 304.652C217.524 304.652 192.348 279.468 192.348 249Z" fill="#1A263E"/>
<path d="M321.541 266.888C331.42 266.888 339.429 258.879 339.429 249C339.429 239.121 331.42 231.112 321.541 231.112C311.661 231.112 303.652 239.121 303.652 249C303.652 258.879 311.661 266.888 321.541 266.888Z" fill="#1A263E"/>
</svg>
