<svg xmlns="http://www.w3.org/2000/svg" fill="none" viewBox="0 0 70 70">
  <path fill="#00D1CA" d="M35 70c19.33 0 35-15.67 35-35S54.33 0 35 0 0 15.67 0 35s15.67 35 35 35Z"/>
  <path fill="#1A263E" d="M22.826 34.999c0-6.665 5.507-12.174 12.433-12.174a12.5 12.5 0 0 1 9.745 4.613 3.913 3.913 0 1 0 6.08-4.928 20.327 20.327 0 0 0-15.825-7.511c-11.13 0-20.259 8.896-20.259 20s9.13 20 20.259 20c6.392 0 12.11-2.928 15.824-7.51a3.913 3.913 0 1 0-6.08-4.929 12.5 12.5 0 0 1-9.744 4.613c-6.926 0-12.433-5.51-12.433-12.174Z"/>
  <path fill="#1A263E" d="M51.087 38.912a3.913 3.913 0 1 0 0-7.826 3.913 3.913 0 0 0 0 7.826Z"/>
</svg>