<svg viewBox="0 0 321 321" fill="none" xmlns="http://www.w3.org/2000/svg">
  <path d="M160.5 321C249.142 321 321 249.142 321 160.5C321 71.8583 249.142 0 160.5 0C71.8583 0 0 71.8583 0 160.5C0 249.142 71.8583 321 160.5 321Z" fill="#00D1CA"/>
  <path d="M104.674 160.5C104.674 129.937 129.929 104.674 161.688 104.674C179.844 104.674 195.941 112.957 206.375 125.827C212.616 133.526 223.916 134.707 231.614 128.466C239.312 122.225 240.494 110.925 234.253 103.227C217.218 82.2146 191 68.7857 161.688 68.7857C110.651 68.7857 68.7858 109.578 68.7858 160.5C68.7858 211.421 110.651 252.214 161.688 252.214C191 252.214 217.218 238.785 234.253 217.773C240.494 210.075 239.312 198.775 231.614 192.534C223.916 186.293 212.616 187.474 206.375 195.173C195.941 208.043 179.844 216.326 161.688 216.326C129.929 216.326 104.674 191.063 104.674 160.5Z" fill="#1A263E"/>
  <path d="M234.27 178.444C244.18 178.444 252.214 170.41 252.214 160.5C252.214 150.59 244.18 142.556 234.27 142.556C224.36 142.556 216.326 150.59 216.326 160.5C216.326 170.41 224.36 178.444 234.27 178.444Z" fill="#1A263E"/>
</svg>
