<svg xmlns="http://www.w3.org/2000/svg" fill="none" viewBox="0 0 128 128">
  <path fill="#fff" fill-rule="evenodd" d="M128 64c0 35.346-28.654 64-64 64-35.346 0-64-28.654-64-64C0 28.654 28.654 0 64 0c35.346 0 64 28.654 64 64ZM64.474 41.74C51.81 41.74 41.739 51.812 41.739 64c0 12.187 10.07 22.26 22.735 22.26 7.24 0 13.658-3.302 17.819-8.434a7.155 7.155 0 0 1 11.116 9.012c-6.792 8.379-17.247 13.733-28.935 13.733-20.352 0-37.045-16.266-37.045-36.571s16.694-36.571 37.045-36.571c11.688 0 22.143 5.354 28.935 13.733a7.155 7.155 0 1 1-11.116 9.012c-4.16-5.132-10.58-8.435-17.82-8.435ZM100.572 64a7.156 7.156 0 1 1-14.311 0 7.156 7.156 0 0 1 14.311 0Z" clip-rule="evenodd"/>
</svg>