<svg width="282" height="99" viewBox="0 0 282 99" fill="none" xmlns="http://www.w3.org/2000/svg">
<path d="M76.9859 19C80.2417 19 82.8644 21.6772 82.774 24.9084V69.6827C82.774 70.4213 82.2313 70.9752 81.5078 70.9752H52.2965H37.0125H7.80109C7.07759 70.9752 6.53497 70.4213 6.53497 69.6827V25.0007C6.53497 21.6772 9.15766 19 12.4134 19H76.9859ZM76.7813 26.503C76.7813 25.7644 76.1482 25.2105 75.4247 25.2105H13.8842C13.1607 25.2105 12.618 25.7644 12.618 26.503V63.3799C12.618 64.1185 13.1607 64.6724 13.8842 64.6724H75.5152C76.2387 64.6724 76.7813 64.1185 76.7813 63.3799V26.503ZM87.7024 72.3038C88.4943 72.3038 89.0882 72.8778 88.9892 73.643C88.9892 76.6085 86.5145 79 83.4459 79H5.54327C2.47467 79 0 76.6085 0 73.643C0 72.8778 0.59393 72.3038 1.38582 72.3038H36.2292C36.2292 73.7387 37.417 74.9823 39.0008 74.9823H50.0874C51.5722 74.9823 52.859 73.8344 52.859 72.3038H87.7024Z" fill="#A5D1D0"/>
<path d="M264.812 32.9009C262.902 32.5149 261.756 30.1966 262.138 28.2659C266.721 16.6779 261.373 5.8611 249.914 1.61195C238.836 -2.63701 227.757 1.61195 223.175 13.2C222.41 15.5175 219.737 16.2901 217.827 14.7447C211.715 9.3371 203.311 7.79145 196.053 10.8818C188.414 13.9719 183.448 20.9251 183.065 29.0362C183.065 30.9677 181.538 32.5124 179.628 32.5124C168.168 32.5124 159 41.7829 159 53.7562C159 65.3442 168.55 75 180.008 75H260.992C272.451 75 282 65.3434 282 53.7562C282 43.3268 274.742 34.8289 264.81 32.8974L264.812 32.9009Z" fill="#A5D1D0"/>
<path d="M198.782 93.1887L182.079 65.3901C180.641 62.9909 180.641 60.0286 182.077 57.6315L198.781 29.8207C200.202 27.4499 202.814 26 205.635 26H239.031C241.847 26 244.466 27.4537 245.886 29.8232L262.578 57.6199C264.016 60.0185 264.016 62.9809 262.579 65.3774L245.885 93.1786C244.464 95.5497 241.853 96.9999 239.031 96.9999H205.635C202.825 97.0147 200.205 95.5645 198.781 93.1871L198.782 93.1887Z" fill="#A5D1D0" stroke="#F4F4F6" stroke-width="3"/>
<path d="M223.722 59.121C224.038 59.6647 224.632 60.0033 225.278 60L238.989 60C239.639 60 240.233 59.6602 240.549 59.1164L247.401 47.358C247.711 46.8259 247.711 46.1739 247.401 45.6408L240.55 33.8844C240.234 33.3416 239.637 33 238.989 33H225.282C224.632 33 224.038 33.3398 223.721 33.8836L216.865 45.6458C216.556 46.1782 216.556 46.83 216.866 47.3638L223.721 59.1197L223.722 59.121Z" fill="#F4F4F6" stroke="#F4F4F6" stroke-width="2"/>
<path d="M223.722 89.121C224.038 89.6647 224.632 90.0033 225.278 90L238.989 90C239.639 90 240.233 89.6602 240.549 89.1164L247.401 77.358C247.711 76.8259 247.711 76.1739 247.401 75.6408L240.55 63.8844C240.234 63.3416 239.637 63 238.989 63H225.282C224.632 63 224.038 63.3398 223.721 63.8836L216.865 75.6458C216.556 76.1782 216.556 76.83 216.866 77.3638L223.721 89.1197L223.722 89.121Z" fill="#F4F4F6" stroke="#F4F4F6" stroke-width="2"/>
<path d="M196.722 74.121C197.038 74.6647 197.632 75.0033 198.278 75L211.989 75C212.639 75 213.233 74.6602 213.549 74.1164L220.401 62.358C220.711 61.8259 220.711 61.1739 220.401 60.6408L213.55 48.8844C213.234 48.3416 212.637 48 211.989 48H198.282C197.632 48 197.038 48.3398 196.721 48.8836L189.865 60.6458C189.556 61.1782 189.556 61.83 189.866 62.3638L196.721 74.1197L196.722 74.121Z" fill="#F4F4F6" stroke="#F4F4F6" stroke-width="2"/>
<path d="M129.5 10L129.5 11.5L129.5 10ZM173.023 27.9998C173.851 27.9874 174.512 27.3059 174.5 26.4776L174.299 12.9791C174.286 12.1508 173.605 11.4893 172.776 11.5017C171.948 11.514 171.287 12.1955 171.299 13.0239L171.478 25.0225L159.479 25.2017C158.651 25.2141 157.99 25.8956 158.002 26.7239C158.014 27.5523 158.696 28.2137 159.524 28.2014L173.023 27.9998ZM87.5003 22.5C88.4419 23.6676 88.4415 23.6679 88.4412 23.6682C88.4411 23.6682 88.4408 23.6685 88.4407 23.6686C88.4406 23.6687 88.4406 23.6686 88.4409 23.6684C88.4415 23.6679 88.4431 23.6667 88.4456 23.6647C88.4505 23.6607 88.4592 23.6539 88.4716 23.6441C88.4965 23.6246 88.5362 23.5937 88.5907 23.5521C88.6997 23.469 88.8676 23.3432 89.0935 23.1809C89.5452 22.8563 90.2281 22.3856 91.1336 21.8174C92.9448 20.6806 95.6439 19.1547 99.1607 17.6256C106.193 14.5679 116.49 11.5 129.5 11.5L129.5 8.5C116.01 8.49999 105.307 11.6821 97.9645 14.8744C94.2939 16.4703 91.4619 18.0694 89.5388 19.2764C88.5771 19.88 87.8421 20.3859 87.3426 20.7448C87.0929 20.9243 86.902 21.0671 86.7709 21.1671C86.7054 21.2171 86.6549 21.2563 86.6195 21.2841C86.6018 21.298 86.5878 21.3091 86.5777 21.3171C86.5726 21.3212 86.5685 21.3245 86.5653 21.327C86.5637 21.3283 86.5624 21.3294 86.5613 21.3303C86.5607 21.3307 86.5601 21.3312 86.5598 21.3315C86.5592 21.3319 86.5586 21.3324 87.5003 22.5ZM129.5 11.5C142.435 11.5 153.063 15.527 160.469 19.5668C164.171 21.5858 167.058 23.6031 169.014 25.1101C169.992 25.8633 170.736 26.4882 171.231 26.9208C171.479 27.1371 171.664 27.3052 171.786 27.4171C171.846 27.4731 171.891 27.515 171.919 27.5419C171.934 27.5553 171.944 27.565 171.95 27.5708C171.953 27.5737 171.955 27.5756 171.956 27.5765C171.956 27.577 171.956 27.5772 171.956 27.5772C171.956 27.5772 171.956 27.577 171.956 27.577C171.956 27.5767 171.956 27.5764 173 26.5C174.045 25.4236 174.044 25.4231 174.044 25.4226C174.044 25.4224 174.043 25.4218 174.043 25.4213C174.041 25.4202 174.04 25.4189 174.039 25.4174C174.035 25.4143 174.031 25.4103 174.026 25.4053C174.015 25.3952 174.001 25.3812 173.982 25.3634C173.944 25.3278 173.89 25.2771 173.82 25.2122C173.679 25.0825 173.474 24.8961 173.205 24.6612C172.667 24.1915 171.876 23.5273 170.845 22.7336C168.786 21.1469 165.767 19.0392 161.906 16.9332C154.187 12.723 143.065 8.50001 129.5 8.5L129.5 11.5Z" fill="#A5D1D0"/>
</svg>
