<svg width="70" height="70" viewBox="0 0 70 70" fill="none" xmlns="http://www.w3.org/2000/svg">
<path d="M34.5714 69.1429C53.6647 69.1429 69.1429 53.6647 69.1429 34.5714C69.1429 15.4782 53.6647 0 34.5714 0C15.4782 0 0 15.4782 0 34.5714C0 53.6647 15.4782 69.1429 34.5714 69.1429Z" fill="#00D1CA"/>
<path d="M22.5466 34.5714C22.5466 27.9882 27.9864 22.5465 34.8272 22.5465C38.738 22.5465 42.2052 24.3306 44.4527 27.103C45.797 28.7612 48.231 29.0157 49.8892 27.6714C51.5474 26.3271 51.8019 23.8931 50.4576 22.2349C46.7884 17.7089 41.141 14.8163 34.8272 14.8163C23.8339 14.8163 14.8163 23.603 14.8163 34.5714C14.8163 45.5398 23.8339 54.3265 34.8272 54.3265C41.141 54.3265 46.7884 51.4339 50.4576 46.9079C51.8019 45.2497 51.5474 42.8157 49.8892 41.4714C48.231 40.1271 45.797 40.3816 44.4527 42.0398C42.2052 44.8121 38.738 46.5962 34.8272 46.5962C27.9864 46.5962 22.5466 41.1546 22.5466 34.5714Z" fill="#1A263E"/>
<path d="M50.4614 38.4365C52.596 38.4365 54.3265 36.706 54.3265 34.5714C54.3265 32.4367 52.596 30.7063 50.4614 30.7063C48.3267 30.7063 46.5963 32.4367 46.5963 34.5714C46.5963 36.706 48.3267 38.4365 50.4614 38.4365Z" fill="#1A263E"/>
</svg>
